<svg xmlns="http://www.w3.org/2000/svg" version="1.1" xmlns:xlink="http://www.w3.org/1999/xlink" xmlns:svgjs="http://svgjs.com/svgjs" width="1440" height="560" preserveAspectRatio="none" viewBox="0 0 1440 560"><g mask="url(&quot;#SvgjsMask1000&quot;)" fill="none"><rect width="1440" height="560" x="0" y="0" fill="#0e2a47"></rect><path d="M720 670.15C825.6 662.4 929.64 639.21 1007.88 567.88 1089.85 493.11 1153.4 390.81 1147.89 280 1142.55 172.83 1060.31 91.23 980.61 19.39 906.22-47.69 820.16-105.12 720-105.76 619.26-106.41 530.28-52.08 456.06 16.06 377.72 87.93 312 174.4 299.69 280 285.89 398.59 298.94 532.31 386.46 613.54 472.38 693.3 603.07 678.75 720 670.15" fill="#1c538e"></path><path d="M720 532.45C788.33 527.43 855.65 512.43 906.27 466.27 959.32 417.9 1000.43 351.7 996.87 280 993.42 210.66 940.2 157.86 888.63 111.37 840.49 67.96 784.81 30.81 720 30.39 654.81 29.97 597.24 65.13 549.21 109.21 498.53 155.72 456 211.67 448.04 280 439.1 356.74 447.55 443.26 504.18 495.82 559.77 547.43 644.34 538.02 720 532.45" fill="#2774c6"></path><path d="M720 394.75C751.06 392.47 781.66 385.65 804.67 364.67 828.78 342.68 847.47 312.59 845.85 280 844.28 248.48 820.09 224.48 796.65 203.35 774.77 183.62 749.46 166.73 720 166.54 690.37 166.35 664.2 182.33 642.37 202.37 619.33 223.51 600 248.94 596.38 280 592.32 314.88 596.16 354.21 621.9 378.1 647.17 401.56 685.61 397.28 720 394.75" fill="#488fdb"></path></g><defs><mask id="SvgjsMask1000"><rect width="1440" height="560" fill="#ffffff"></rect></mask></defs></svg>